<svg width="335" height="567" fill="none" xmlns="http://www.w3.org/2000/svg"><g clip-path="url(#clip0_495_5897)" fill-rule="evenodd" clip-rule="evenodd" fill="#000"><path d="M51.697 516.997c-5.711 0-10.34-4.477-10.34-10s4.629-10 10.34-10c5.71 0 10.34 4.477 10.34 10 5.71 0 10.339 4.477 10.339 10s-4.63 10-10.34 10-10.34-4.477-10.34-10zm-41.358 40c-5.711 0-10.34-4.477-10.34-10s4.629-10 10.34-10c5.71 0 10.339 4.477 10.339 10 5.71 0 10.34 4.477 10.34 10s-4.63 10-10.34 10-10.34-4.477-10.34-10zm8.271-10c0-4.418-3.704-8-8.271-8-4.568 0-8.272 3.582-8.272 8s3.704 8 8.271 8c4.569 0 8.272-3.582 8.272-8zm41.358-40c0-4.418-3.704-8-8.271-8-4.568 0-8.272 3.582-8.272 8s3.704 8 8.272 8c4.567 0 8.271-3.582 8.271-8zm-8.271-72c-5.711 0-10.34-4.477-10.34-10s4.629-10 10.34-10c5.71 0 10.34 4.477 10.34 10 5.71 0 10.339 4.477 10.339 10s-4.63 10-10.34 10-10.34-4.477-10.34-10zm-41.358 40c-5.711 0-10.34-4.477-10.34-10s4.629-10 10.34-10c5.71 0 10.339 4.477 10.339 10 5.71 0 10.34 4.477 10.34 10s-4.63 10-10.34 10-10.34-4.477-10.34-10zm8.271-10c0-4.418-3.704-8-8.271-8-4.568 0-8.272 3.582-8.272 8s3.704 8 8.271 8c4.569 0 8.272-3.582 8.272-8zm41.358-40c0-4.418-3.704-8-8.271-8-4.568 0-8.272 3.582-8.272 8s3.704 8 8.272 8c4.567 0 8.271-3.582 8.271-8zm-8.271-72c-5.711 0-10.34-4.477-10.34-10s4.629-10 10.34-10c5.71 0 10.34 4.477 10.34 10 5.71 0 10.339 4.477 10.339 10s-4.63 10-10.34 10-10.34-4.477-10.34-10zm-41.358 40c-5.711 0-10.34-4.477-10.34-10s4.629-10 10.34-10c5.71 0 10.339 4.477 10.339 10 5.71 0 10.34 4.477 10.34 10s-4.63 10-10.34 10-10.34-4.477-10.34-10zm8.271-10c0-4.418-3.704-8-8.271-8-4.568 0-8.272 3.582-8.272 8s3.704 8 8.271 8c4.569 0 8.272-3.582 8.272-8zm41.358-40c0-4.418-3.704-8-8.271-8-4.568 0-8.272 3.582-8.272 8s3.704 8 8.272 8c4.567 0 8.271-3.582 8.271-8zm-8.271-72c-5.711 0-10.34-4.477-10.34-10s4.629-10 10.34-10c5.71 0 10.34 4.477 10.34 10 5.71 0 10.339 4.477 10.339 10s-4.63 10-10.34 10-10.34-4.477-10.34-10zm-41.358 40c-5.711 0-10.34-4.477-10.34-10s4.629-10 10.34-10c5.71 0 10.339 4.477 10.339 10 5.71 0 10.34 4.477 10.34 10s-4.63 10-10.34 10-10.34-4.477-10.34-10zm8.271-10c0-4.418-3.704-8-8.271-8-4.568 0-8.272 3.582-8.272 8s3.704 8 8.271 8c4.569 0 8.272-3.582 8.272-8zm41.358-40c0-4.418-3.704-8-8.271-8-4.568 0-8.272 3.582-8.272 8s3.704 8 8.272 8c4.567 0 8.271-3.582 8.271-8zm-8.271-72c-5.711 0-10.34-4.477-10.34-10s4.629-10 10.34-10c5.71 0 10.34 4.477 10.34 10 5.71 0 10.339 4.477 10.339 10s-4.63 10-10.34 10-10.34-4.477-10.34-10zm-41.358 40c-5.711 0-10.34-4.477-10.34-10s4.629-10 10.34-10c5.71 0 10.339 4.477 10.339 10 5.71 0 10.34 4.477 10.34 10s-4.63 10-10.34 10-10.34-4.477-10.34-10zm8.271-10c0-4.418-3.704-8-8.271-8-4.568 0-8.272 3.582-8.272 8s3.704 8 8.271 8c4.569 0 8.272-3.582 8.272-8zm41.358-40c0-4.418-3.704-8-8.271-8-4.568 0-8.272 3.582-8.272 8s3.704 8 8.272 8c4.567 0 8.271-3.582 8.271-8zm-8.271-72c-5.711 0-10.34-4.477-10.34-10s4.629-10 10.34-10c5.71 0 10.34 4.477 10.34 10 5.71 0 10.339 4.477 10.339 10s-4.63 10-10.34 10-10.34-4.477-10.34-10zm-41.358 40c-5.711 0-10.34-4.477-10.34-10s4.629-10 10.34-10c5.71 0 10.339 4.477 10.339 10 5.71 0 10.34 4.477 10.34 10s-4.63 10-10.34 10-10.34-4.477-10.34-10zm8.271-10c0-4.418-3.704-8-8.271-8-4.568 0-8.272 3.582-8.272 8s3.704 8 8.271 8c4.569 0 8.272-3.582 8.272-8zm41.358-40c0-4.418-3.704-8-8.271-8-4.568 0-8.272 3.582-8.272 8s3.704 8 8.272 8c4.567 0 8.271-3.582 8.271-8zm76.513 420c-5.711 0-10.34-4.477-10.34-10s4.629-10 10.34-10c5.71 0 10.339 4.477 10.339 10 5.711 0 10.34 4.477 10.34 10s-4.629 10-10.34 10c-5.71 0-10.339-4.477-10.339-10zm-41.358 40c-5.71 0-10.34-4.477-10.34-10s4.63-10 10.34-10 10.339 4.477 10.339 10c5.711 0 10.34 4.477 10.34 10s-4.629 10-10.34 10c-5.71 0-10.34-4.477-10.34-10zm8.271-10c0-4.418-3.703-8-8.271-8-4.568 0-8.272 3.582-8.272 8s3.704 8 8.272 8 8.271-3.582 8.271-8zm41.358-40c0-4.418-3.703-8-8.271-8-4.568 0-8.272 3.582-8.272 8s3.704 8 8.272 8 8.271-3.582 8.271-8zm-8.271-72c-5.711 0-10.34-4.477-10.34-10s4.629-10 10.34-10c5.71 0 10.339 4.477 10.339 10 5.711 0 10.34 4.477 10.34 10s-4.629 10-10.34 10c-5.71 0-10.339-4.477-10.339-10zm-41.358 40c-5.71 0-10.34-4.477-10.34-10s4.63-10 10.34-10 10.339 4.477 10.339 10c5.711 0 10.34 4.477 10.34 10s-4.629 10-10.34 10c-5.71 0-10.34-4.477-10.34-10zm8.271-10c0-4.418-3.703-8-8.271-8-4.568 0-8.272 3.582-8.272 8s3.704 8 8.272 8 8.271-3.582 8.271-8zm41.358-40c0-4.418-3.703-8-8.271-8-4.568 0-8.272 3.582-8.272 8s3.704 8 8.272 8 8.271-3.582 8.271-8zm-8.271-72c-5.711 0-10.34-4.477-10.34-10s4.629-10 10.34-10c5.71 0 10.339 4.477 10.339 10 5.711 0 10.34 4.477 10.34 10s-4.629 10-10.34 10c-5.71 0-10.339-4.477-10.339-10zm-41.358 40c-5.71 0-10.34-4.477-10.34-10s4.63-10 10.34-10 10.339 4.477 10.339 10c5.711 0 10.34 4.477 10.34 10s-4.629 10-10.34 10c-5.71 0-10.34-4.477-10.34-10zm8.271-10c0-4.418-3.703-8-8.271-8-4.568 0-8.272 3.582-8.272 8s3.704 8 8.272 8 8.271-3.582 8.271-8zm41.358-40c0-4.418-3.703-8-8.271-8-4.568 0-8.272 3.582-8.272 8s3.704 8 8.272 8 8.271-3.582 8.271-8zm-8.271-72c-5.711 0-10.34-4.477-10.34-10s4.629-10 10.34-10c5.71 0 10.339 4.477 10.339 10 5.711 0 10.34 4.477 10.34 10s-4.629 10-10.34 10c-5.71 0-10.339-4.477-10.339-10zm-41.358 40c-5.71 0-10.34-4.477-10.34-10s4.63-10 10.34-10 10.339 4.477 10.339 10c5.711 0 10.34 4.477 10.34 10s-4.629 10-10.34 10c-5.71 0-10.34-4.477-10.34-10zm8.271-10c0-4.418-3.703-8-8.271-8-4.568 0-8.272 3.582-8.272 8s3.704 8 8.272 8 8.271-3.582 8.271-8zm41.358-40c0-4.418-3.703-8-8.271-8-4.568 0-8.272 3.582-8.272 8s3.704 8 8.272 8 8.271-3.582 8.271-8zm-8.271-72c-5.711 0-10.34-4.477-10.34-10s4.629-10 10.34-10c5.71 0 10.339 4.477 10.339 10 5.711 0 10.34 4.477 10.34 10s-4.629 10-10.34 10c-5.71 0-10.339-4.477-10.339-10zm-41.358 40c-5.71 0-10.34-4.477-10.34-10s4.63-10 10.34-10 10.339 4.477 10.339 10c5.711 0 10.34 4.477 10.34 10s-4.629 10-10.34 10c-5.71 0-10.34-4.477-10.34-10zm8.271-10c0-4.418-3.703-8-8.271-8-4.568 0-8.272 3.582-8.272 8s3.704 8 8.272 8 8.271-3.582 8.271-8zm41.358-40c0-4.418-3.703-8-8.271-8-4.568 0-8.272 3.582-8.272 8s3.704 8 8.272 8 8.271-3.582 8.271-8zm-8.271-72c-5.711 0-10.34-4.477-10.34-10s4.629-10 10.34-10c5.71 0 10.339 4.477 10.339 10 5.711 0 10.34 4.477 10.34 10s-4.629 10-10.34 10c-5.71 0-10.339-4.477-10.339-10zm-41.358 40c-5.71 0-10.34-4.477-10.34-10s4.63-10 10.34-10 10.339 4.477 10.339 10c5.711 0 10.34 4.477 10.34 10s-4.629 10-10.34 10c-5.71 0-10.34-4.477-10.34-10zm8.271-10c0-4.418-3.703-8-8.271-8-4.568 0-8.272 3.582-8.272 8s3.704 8 8.272 8 8.271-3.582 8.271-8zm41.358-40c0-4.418-3.703-8-8.271-8-4.568 0-8.272 3.582-8.272 8s3.704 8 8.272 8 8.271-3.582 8.271-8zm76.512 420c-5.71 0-10.339-4.477-10.339-10s4.629-10 10.339-10c5.711 0 10.34 4.477 10.34 10 5.71 0 10.339 4.477 10.339 10s-4.629 10-10.339 10c-5.711 0-10.34-4.477-10.34-10zm-41.358 40c-5.71 0-10.339-4.477-10.339-10s4.629-10 10.339-10c5.711 0 10.34 4.477 10.34 10 5.71 0 10.339 4.477 10.339 10s-4.629 10-10.339 10c-5.711 0-10.34-4.477-10.34-10zm8.272-10c0-4.418-3.704-8-8.272-8s-8.271 3.582-8.271 8 3.703 8 8.271 8c4.568 0 8.272-3.582 8.272-8zm41.358-40c0-4.418-3.704-8-8.272-8s-8.271 3.582-8.271 8 3.703 8 8.271 8c4.568 0 8.272-3.582 8.272-8zm-8.272-72c-5.71 0-10.339-4.477-10.339-10s4.629-10 10.339-10c5.711 0 10.34 4.477 10.34 10 5.71 0 10.339 4.477 10.339 10s-4.629 10-10.339 10c-5.711 0-10.34-4.477-10.34-10zm-41.358 40c-5.71 0-10.339-4.477-10.339-10s4.629-10 10.339-10c5.711 0 10.34 4.477 10.34 10 5.71 0 10.339 4.477 10.339 10s-4.629 10-10.339 10c-5.711 0-10.34-4.477-10.34-10zm8.272-10c0-4.418-3.704-8-8.272-8s-8.271 3.582-8.271 8 3.703 8 8.271 8c4.568 0 8.272-3.582 8.272-8zm41.358-40c0-4.418-3.704-8-8.272-8s-8.271 3.582-8.271 8 3.703 8 8.271 8c4.568 0 8.272-3.582 8.272-8zm-8.272-72c-5.71 0-10.339-4.477-10.339-10s4.629-10 10.339-10c5.711 0 10.34 4.477 10.34 10 5.71 0 10.339 4.477 10.339 10s-4.629 10-10.339 10c-5.711 0-10.34-4.477-10.34-10zm-41.358 40c-5.71 0-10.339-4.477-10.339-10s4.629-10 10.339-10c5.711 0 10.34 4.477 10.34 10 5.71 0 10.339 4.477 10.339 10s-4.629 10-10.339 10c-5.711 0-10.34-4.477-10.34-10zm8.272-10c0-4.418-3.704-8-8.272-8s-8.271 3.582-8.271 8 3.703 8 8.271 8c4.568 0 8.272-3.582 8.272-8zm41.358-40c0-4.418-3.704-8-8.272-8s-8.271 3.582-8.271 8 3.703 8 8.271 8c4.568 0 8.272-3.582 8.272-8zm-8.272-72c-5.71 0-10.339-4.477-10.339-10s4.629-10 10.339-10c5.711 0 10.34 4.477 10.34 10 5.71 0 10.339 4.477 10.339 10s-4.629 10-10.339 10c-5.711 0-10.34-4.477-10.34-10zm-41.358 40c-5.71 0-10.339-4.477-10.339-10s4.629-10 10.339-10c5.711 0 10.34 4.477 10.34 10 5.71 0 10.339 4.477 10.339 10s-4.629 10-10.339 10c-5.711 0-10.34-4.477-10.34-10zm8.272-10c0-4.418-3.704-8-8.272-8s-8.271 3.582-8.271 8 3.703 8 8.271 8c4.568 0 8.272-3.582 8.272-8zm41.358-40c0-4.418-3.704-8-8.272-8s-8.271 3.582-8.271 8 3.703 8 8.271 8c4.568 0 8.272-3.582 8.272-8zm-8.272-72c-5.71 0-10.339-4.477-10.339-10s4.629-10 10.339-10c5.711 0 10.34 4.477 10.34 10 5.71 0 10.339 4.477 10.339 10s-4.629 10-10.339 10c-5.711 0-10.34-4.477-10.34-10zm-41.358 40c-5.71 0-10.339-4.477-10.339-10s4.629-10 10.339-10c5.711 0 10.34 4.477 10.34 10 5.71 0 10.339 4.477 10.339 10s-4.629 10-10.339 10c-5.711 0-10.34-4.477-10.34-10zm8.272-10c0-4.418-3.704-8-8.272-8s-8.271 3.582-8.271 8 3.703 8 8.271 8c4.568 0 8.272-3.582 8.272-8zm41.358-40c0-4.418-3.704-8-8.272-8s-8.271 3.582-8.271 8 3.703 8 8.271 8c4.568 0 8.272-3.582 8.272-8zm-8.272-72c-5.71 0-10.339-4.477-10.339-10s4.629-10 10.339-10c5.711 0 10.34 4.477 10.34 10 5.71 0 10.339 4.477 10.339 10s-4.629 10-10.339 10c-5.711 0-10.34-4.477-10.34-10zm-41.358 40c-5.71 0-10.339-4.477-10.339-10s4.629-10 10.339-10c5.711 0 10.34 4.477 10.34 10 5.71 0 10.339 4.477 10.339 10s-4.629 10-10.339 10c-5.711 0-10.34-4.477-10.34-10zm8.272-10c0-4.418-3.704-8-8.272-8s-8.271 3.582-8.271 8 3.703 8 8.271 8c4.568 0 8.272-3.582 8.272-8zm41.358-40c0-4.418-3.704-8-8.272-8s-8.271 3.582-8.271 8 3.703 8 8.271 8c4.568 0 8.272-3.582 8.272-8zm76.513 420c-5.711 0-10.34-4.477-10.34-10s4.629-10 10.34-10c5.71 0 10.339 4.477 10.339 10 5.711 0 10.34 4.477 10.34 10s-4.629 10-10.34 10c-5.71 0-10.339-4.477-10.339-10zm-41.358 40c-5.711 0-10.34-4.477-10.34-10s4.629-10 10.34-10c5.71 0 10.339 4.477 10.339 10 5.711 0 10.34 4.477 10.34 10s-4.629 10-10.34 10c-5.71 0-10.339-4.477-10.339-10zm8.271-10c0-4.418-3.703-8-8.271-8-4.568 0-8.272 3.582-8.272 8s3.704 8 8.272 8 8.271-3.582 8.271-8zm41.358-40c0-4.418-3.703-8-8.271-8-4.568 0-8.272 3.582-8.272 8s3.704 8 8.272 8 8.271-3.582 8.271-8zm-8.271-72c-5.711 0-10.34-4.477-10.34-10s4.629-10 10.34-10c5.71 0 10.339 4.477 10.339 10 5.711 0 10.34 4.477 10.34 10s-4.629 10-10.34 10c-5.71 0-10.339-4.477-10.339-10zm-41.358 40c-5.711 0-10.34-4.477-10.34-10s4.629-10 10.34-10c5.71 0 10.339 4.477 10.339 10 5.711 0 10.34 4.477 10.34 10s-4.629 10-10.34 10c-5.71 0-10.339-4.477-10.339-10zm8.271-10c0-4.418-3.703-8-8.271-8-4.568 0-8.272 3.582-8.272 8s3.704 8 8.272 8 8.271-3.582 8.271-8zm41.358-40c0-4.418-3.703-8-8.271-8-4.568 0-8.272 3.582-8.272 8s3.704 8 8.272 8 8.271-3.582 8.271-8zm-8.271-72c-5.711 0-10.34-4.477-10.34-10s4.629-10 10.34-10c5.71 0 10.339 4.477 10.339 10 5.711 0 10.34 4.477 10.34 10s-4.629 10-10.34 10c-5.71 0-10.339-4.477-10.339-10zm-41.358 40c-5.711 0-10.34-4.477-10.34-10s4.629-10 10.34-10c5.71 0 10.339 4.477 10.339 10 5.711 0 10.34 4.477 10.34 10s-4.629 10-10.34 10c-5.71 0-10.339-4.477-10.339-10zm8.271-10c0-4.418-3.703-8-8.271-8-4.568 0-8.272 3.582-8.272 8s3.704 8 8.272 8 8.271-3.582 8.271-8zm41.358-40c0-4.418-3.703-8-8.271-8-4.568 0-8.272 3.582-8.272 8s3.704 8 8.272 8 8.271-3.582 8.271-8zm-8.271-72c-5.711 0-10.34-4.477-10.34-10s4.629-10 10.34-10c5.71 0 10.339 4.477 10.339 10 5.711 0 10.34 4.477 10.34 10s-4.629 10-10.34 10c-5.71 0-10.339-4.477-10.339-10zm-41.358 40c-5.711 0-10.34-4.477-10.34-10s4.629-10 10.34-10c5.71 0 10.339 4.477 10.339 10 5.711 0 10.34 4.477 10.34 10s-4.629 10-10.34 10c-5.71 0-10.339-4.477-10.339-10zm8.271-10c0-4.418-3.703-8-8.271-8-4.568 0-8.272 3.582-8.272 8s3.704 8 8.272 8 8.271-3.582 8.271-8zm41.358-40c0-4.418-3.703-8-8.271-8-4.568 0-8.272 3.582-8.272 8s3.704 8 8.272 8 8.271-3.582 8.271-8zm-8.271-72c-5.711 0-10.34-4.477-10.34-10s4.629-10 10.34-10c5.71 0 10.339 4.477 10.339 10 5.711 0 10.34 4.477 10.34 10s-4.629 10-10.34 10c-5.71 0-10.339-4.477-10.339-10zm-41.358 40c-5.711 0-10.34-4.477-10.34-10s4.629-10 10.34-10c5.71 0 10.339 4.477 10.339 10 5.711 0 10.34 4.477 10.34 10s-4.629 10-10.34 10c-5.71 0-10.339-4.477-10.339-10zm8.271-10c0-4.418-3.703-8-8.271-8-4.568 0-8.272 3.582-8.272 8s3.704 8 8.272 8 8.271-3.582 8.271-8zm41.358-40c0-4.418-3.703-8-8.271-8-4.568 0-8.272 3.582-8.272 8s3.704 8 8.272 8 8.271-3.582 8.271-8zm-8.271-72c-5.711 0-10.34-4.477-10.34-10s4.629-10 10.34-10c5.71 0 10.339 4.477 10.339 10 5.711 0 10.34 4.477 10.34 10s-4.629 10-10.34 10c-5.71 0-10.339-4.477-10.339-10zm-41.358 40c-5.711 0-10.34-4.477-10.34-10s4.629-10 10.34-10c5.71 0 10.339 4.477 10.339 10 5.711 0 10.34 4.477 10.34 10s-4.629 10-10.34 10c-5.71 0-10.339-4.477-10.339-10zm8.271-10c0-4.418-3.703-8-8.271-8-4.568 0-8.272 3.582-8.272 8s3.704 8 8.272 8 8.271-3.582 8.271-8zm41.358-40c0-4.418-3.703-8-8.271-8-4.568 0-8.272 3.582-8.272 8s3.704 8 8.272 8 8.271-3.582 8.271-8zm-262.623-72c-5.711 0-10.34-4.477-10.34-10s4.629-10 10.34-10c5.71 0 10.34 4.477 10.34 10 5.71 0 10.339 4.477 10.339 10s-4.63 10-10.34 10-10.34-4.477-10.34-10zm-41.358 40c-5.711 0-10.34-4.477-10.34-10s4.629-10 10.34-10c5.71 0 10.339 4.477 10.339 10 5.71 0 10.34 4.477 10.34 10s-4.63 10-10.34 10-10.34-4.477-10.34-10zm8.271-10c0-4.418-3.704-8-8.271-8-4.568 0-8.272 3.582-8.272 8s3.704 8 8.271 8c4.569 0 8.272-3.582 8.272-8zm41.358-40c0-4.418-3.704-8-8.271-8-4.568 0-8.272 3.582-8.272 8s3.704 8 8.272 8c4.567 0 8.271-3.582 8.271-8zm76.513 10c-5.711 0-10.34-4.477-10.34-10s4.629-10 10.34-10c5.71 0 10.339 4.477 10.339 10 5.711 0 10.34 4.477 10.34 10s-4.629 10-10.34 10c-5.71 0-10.339-4.477-10.339-10zm-41.358 40c-5.71 0-10.34-4.477-10.34-10s4.63-10 10.34-10 10.339 4.477 10.339 10c5.711 0 10.34 4.477 10.34 10s-4.629 10-10.34 10c-5.71 0-10.34-4.477-10.34-10zm8.271-10c0-4.418-3.703-8-8.271-8-4.568 0-8.272 3.582-8.272 8s3.704 8 8.272 8 8.271-3.582 8.271-8zm41.358-40c0-4.418-3.703-8-8.271-8-4.568 0-8.272 3.582-8.272 8s3.704 8 8.272 8 8.271-3.582 8.271-8zm76.512 10c-5.71 0-10.339-4.477-10.339-10s4.629-10 10.339-10c5.711 0 10.34 4.477 10.34 10 5.71 0 10.339 4.477 10.339 10s-4.629 10-10.339 10c-5.711 0-10.34-4.477-10.34-10zm-41.358 40c-5.71 0-10.339-4.477-10.339-10s4.629-10 10.339-10c5.711 0 10.34 4.477 10.34 10 5.71 0 10.339 4.477 10.339 10s-4.629 10-10.339 10c-5.711 0-10.34-4.477-10.34-10zm8.272-10c0-4.418-3.704-8-8.272-8s-8.271 3.582-8.271 8 3.703 8 8.271 8c4.568 0 8.272-3.582 8.272-8zm41.358-40c0-4.418-3.704-8-8.272-8s-8.271 3.582-8.271 8 3.703 8 8.271 8c4.568 0 8.272-3.582 8.272-8zm76.513 10c-5.711 0-10.34-4.477-10.34-10s4.629-10 10.34-10c5.71 0 10.339 4.477 10.339 10 5.711 0 10.34 4.477 10.34 10s-4.629 10-10.34 10c-5.71 0-10.339-4.477-10.339-10zm-41.358 40c-5.711 0-10.34-4.477-10.34-10s4.629-10 10.34-10c5.71 0 10.339 4.477 10.339 10 5.711 0 10.34 4.477 10.34 10s-4.629 10-10.34 10c-5.71 0-10.339-4.477-10.339-10zm8.271-10c0-4.418-3.703-8-8.271-8-4.568 0-8.272 3.582-8.272 8s3.704 8 8.272 8 8.271-3.582 8.271-8zm41.358-40c0-4.418-3.703-8-8.271-8-4.568 0-8.272 3.582-8.272 8s3.704 8 8.272 8 8.271-3.582 8.271-8z"/></g><defs><clipPath id="clip0_495_5897"><path fill="#fff" transform="rotate(-90 283.498 283.499)" d="M0 0h566v335H0z"/></clipPath></defs></svg>