<svg width="76" height="76" fill="none" xmlns="http://www.w3.org/2000/svg"><g clip-path="url(#clip0_863_249)" fill="#5D62B5"><path d="M72.2 0H31.666a1.252 1.252 0 00-.552.14c-10.022.968-17.843 9.097-18.425 19.149a20.334 20.334 0 001.014 7.322C6.16 26.881.204 33.105.267 40.651c.062 7.546 6.121 13.671 13.666 13.816h49.4a5.067 5.067 0 010 10.133h-26.6c0-1.4-1.134-2.533-2.533-2.533H24.066a2.533 2.533 0 00-2.533 2.533h-3.078a1.203 1.203 0 01-1.09-.876 6.375 6.375 0 00-5.965-4.19H6.333A6.341 6.341 0 000 65.866v6.194a3.905 3.905 0 003.167 3.884A3.8 3.8 0 007.6 72.2v-5.067l2.674.046a6.354 6.354 0 006.193 5.021h5.066c0 1.4 1.134 2.533 2.534 2.533H34.2a2.533 2.533 0 002.533-2.533h26.6C70.33 72.2 76 66.529 76 59.533c0-6.995-5.671-12.666-12.667-12.666h-49.4a6.333 6.333 0 010-12.667h4.287c.016.018.03.037.046.054a20.096 20.096 0 0014.667 6.28c8.843 0 15.042-3.736 19.142-6.207l.507-.308c5.33-3.198 17.886-10.911 21.607-13.199a3.773 3.773 0 001.81-3.236V3.8A3.8 3.8 0 0072.2 0zM16.466 69.667a3.809 3.809 0 01-3.712-3.006 2.533 2.533 0 00-2.481-2.061H7.6a2.533 2.533 0 00-2.534 2.533V72.2a1.267 1.267 0 01-1.493 1.245 1.373 1.373 0 01-1.04-1.384v-6.194a3.8 3.8 0 013.8-3.8H11.4a3.827 3.827 0 013.58 2.513 3.699 3.699 0 003.475 2.553h3.078v2.534h-5.067zm26.6-67.134V3.8c0 .7-.567 1.267-1.266 1.267h-7.6c-.7 0-1.267-.567-1.267-1.267V2.559c.18 0 .356-.026.537-.026h9.596zm-19 69.667v-7.6H34.2v7.6H24.066zM13.934 31.667a8.867 8.867 0 100 17.733h49.4c5.597 0 10.133 4.537 10.133 10.133 0 5.597-4.536 10.134-10.133 10.134h-26.6v-2.534h26.6a7.6 7.6 0 000-15.2h-49.4c-6.296 0-11.4-5.104-11.4-11.4s5.104-11.4 11.4-11.4h.767c.436.88.938 1.727 1.5 2.534h-2.267zm59.533-14.083c.003.44-.225.848-.6 1.076-3.719 2.288-16.264 9.994-21.585 13.188l-.513.308C46.907 34.484 41.07 38 32.933 38A17.734 17.734 0 0115.22 19.408 17.85 17.85 0 0130.4 2.798V3.8a3.8 3.8 0 003.8 3.8h7.6a3.8 3.8 0 003.8-3.8V2.533h26.6c.7 0 1.266.567 1.266 1.267v13.784z"/><path d="M67.133 5.066H50.667a3.8 3.8 0 00-3.8 3.8v9.084a3.772 3.772 0 001.113 2.688l2.992 2.991a3.812 3.812 0 002.697 1.109 3.768 3.768 0 001.79-.45l13.475-7.255a3.8 3.8 0 002-3.347v-4.82a3.8 3.8 0 00-3.8-3.8zm1.267 8.62c0 .466-.256.895-.666 1.116l-13.476 7.256a1.274 1.274 0 01-1.495-.22l-2.992-2.992a1.267 1.267 0 01-.371-.896V8.866c0-.7.567-1.266 1.267-1.266h16.466c.7 0 1.267.567 1.267 1.266v4.82z"/></g><defs><clipPath id="clip0_863_249"><path fill="#fff" d="M0 0h76v76H0z"/></clipPath></defs></svg>